<?xml version="1.0" encoding="utf-8"?>
<!-- Generator: Adobe Illustrator 25.0.1, SVG Export Plug-In . SVG Version: 6.00 Build 0)  -->
<svg version="1.1" id="Camada_1" xmlns="http://www.w3.org/2000/svg" xmlns:xlink="http://www.w3.org/1999/xlink" x="0px" y="0px"
	 viewBox="0 0 400 400" style="enable-background:new 0 0 400 400;" xml:space="preserve">
<style type="text/css">
	.st0{fill:#88C1D3;}
	.st1{fill:#88C1D3;stroke:#88C1D3;stroke-width:2;stroke-miterlimit:10;}
</style>
<g>
	<path class="st0" d="M364.1,267.1h-12.4V79.7c0-17.3-14-31.3-31.3-31.3H79.7c-17.3,0-31.3,14-31.3,31.3v187.4H35.9
		c-5.2,0-9.4,4.2-9.4,9.4v43.8c0,17.3,14,31.3,31.3,31.3h284.4c17.3,0,31.3-14,31.3-31.3v-43.8C373.5,271.4,369.3,267.1,364.1,267.1
		z M67.2,79.7c0-6.9,5.6-12.4,12.4-12.4h240.6c6.9,0,12.4,5.6,12.4,12.4v187.4H67.2V79.7z M354.6,320.3c0,6.9-5.6,12.4-12.4,12.4
		H57.8c-6.9,0-12.4-5.6-12.4-12.4V286h309.2V320.3z"/>
</g>
<g>
	<path class="st0" d="M231.3,309.4c0,5.2-4.2,9.4-9.4,9.4h-43.8c-5.2,0-9.4-4.2-9.4-9.4c0-5.2,4.2-9.4,9.4-9.4h43.8
		C227.1,299.9,231.3,304.2,231.3,309.4z"/>
</g>
<g>
	<path class="st1" d="M200,94.2c-40.3,0-73,32.7-73,73s32.7,73,73,73s73-32.7,73-73C273,126.9,240.3,94.2,200,94.2z M200,230.5
		c-34.9,0-63.3-28.3-63.3-63.3s28.3-63.3,63.3-63.3s63.3,28.3,63.3,63.3C263.2,202.1,234.9,230.4,200,230.5z"/>
	<path class="st1" d="M200,133.1c2.2,0,4.3,0.3,6.4,0.7l-7.2,4.5l5.2,8.2l16.4-10.3c2.3-1.4,3-4.4,1.5-6.7c-0.1-0.1-0.1-0.2-0.2-0.3
		l-12-16.4l-7.9,5.7l3.9,5.3c-23.8-3.5-46,12.9-49.6,36.7c-0.3,2.2-0.5,4.4-0.5,6.6c0,9,2.8,17.8,7.9,25.2l8-5.6
		c-10.8-15.4-7.1-36.7,8.3-47.5C186.2,135.3,193,133.1,200,133.1z"/>
	<path class="st1" d="M227.7,147.1c10.8,15.4,7.1,36.7-8.3,47.5c-5.7,4-12.6,6.2-19.6,6.2c-2.2,0-4.3-0.3-6.4-0.7l7.2-4.5l-5.2-8.2
		L179,197.6c-2.3,1.4-3,4.4-1.5,6.7c0.1,0.1,0.1,0.2,0.2,0.3l12,16.4l7.9-5.7l-3.9-5.3c24,3.4,46.1-13.2,49.6-37.2
		c1.6-11-1.1-22.2-7.5-31.3L227.7,147.1z"/>
</g>
</svg>
