<?xml version="1.0" encoding="utf-8"?>
<!-- Generator: Adobe Illustrator 24.3.0, SVG Export Plug-In . SVG Version: 6.00 Build 0)  -->
<svg version="1.1" id="Camada_1" xmlns="http://www.w3.org/2000/svg" xmlns:xlink="http://www.w3.org/1999/xlink" x="0px" y="0px"
	 viewBox="0 0 400 400" style="enable-background:new 0 0 400 400;" xml:space="preserve">
<style type="text/css">
	.st0{fill:#88C1D3;}
</style>
<g>
	<g>
		<g>
			<path class="st0" d="M364.1,267.1h-12.4V79.7c0-17.3-14-31.3-31.3-31.3H79.7c-17.3,0-31.3,14-31.3,31.3v187.4H35.9
				c-5.2,0-9.4,4.2-9.4,9.4v43.8c0,17.3,14,31.3,31.3,31.3h284.4c17.3,0,31.3-14,31.3-31.3v-43.8
				C373.5,271.4,369.3,267.1,364.1,267.1z M67.2,79.7c0-6.9,5.6-12.4,12.4-12.4h240.6c6.9,0,12.4,5.6,12.4,12.4v187.4H67.2V79.7z
				 M354.6,320.3c0,6.9-5.6,12.4-12.4,12.4H57.8c-6.9,0-12.4-5.6-12.4-12.4V286h309.2V320.3z"/>
		</g>
		<g>
			<path class="st0" d="M280.3,147.6l-76.6-32.8c-2.4-1-5.1-1-7.4,0l-76.6,32.8c-3.5,1.5-5.7,4.9-5.7,8.7V200c0,5.2,4.2,9.4,9.4,9.4
				c5.2,0,9.4-4.2,9.4-9.4v-29.4l13.9,6v45.3c0,17.8,22.9,31.3,53.2,31.3s53.2-13.5,53.2-31.3v-45.3l27.1-11.6
				c3.5-1.5,5.7-4.9,5.7-8.7S283.8,149.1,280.3,147.6z M234.3,221.9c0,4.3-13.4,12.4-34.3,12.4s-34.3-8.2-34.3-12.4v-37.3l30.6,13.1
				c2.4,1,5.1,1,7.4,0l30.6-13.1V221.9z M200,178.8l-52.6-22.5l52.6-22.5l52.6,22.5L200,178.8z"/>
		</g>
		<g>
			<path class="st0" d="M209.4,90.6c0,2.5-1,4.9-2.8,6.7c-1.7,1.8-4.1,2.8-6.6,2.8c-2.5,0-4.9-1-6.7-2.7c-1.8-1.8-2.8-4.2-2.8-6.7
				c0-2.5,1-4.9,2.8-6.7c1.7-1.7,4.1-2.6,6.6-2.6s5,1,6.7,2.6C208.4,85.7,209.4,88.1,209.4,90.6z"/>
		</g>
		<g>
			<path class="st0" d="M231.3,309.4c0,5.2-4.2,9.4-9.4,9.4h-43.8c-5.2,0-9.4-4.2-9.4-9.4c0-5.2,4.2-9.4,9.4-9.4h43.8
				C227.1,299.9,231.3,304.2,231.3,309.4z"/>
		</g>
	</g>
</g>
</svg>
