<?xml version="1.0" encoding="utf-8"?>
<!-- Generator: Adobe Illustrator 24.3.0, SVG Export Plug-In . SVG Version: 6.00 Build 0)  -->
<svg version="1.1" id="Camada_1" xmlns="http://www.w3.org/2000/svg" xmlns:xlink="http://www.w3.org/1999/xlink" x="0px" y="0px"
	 viewBox="0 0 400 400" style="enable-background:new 0 0 400 400;" xml:space="preserve">
<style type="text/css">
	.st0{fill:#88C1D3;stroke:#88C1D3;stroke-width:6;stroke-miterlimit:10;}
</style>
<path class="st0" d="M161.2,236.5l0.7,0.4l4.8,7.8c-8.5,4.9-11.5,15.9-6.5,24.4c0.7,1.1,1.4,2.2,2.3,3.2c-6.7,7.3-6.2,18.7,1.2,25.4
	c3.3,3,7.7,4.7,12.2,4.7h48.2c9.9,0,18-8,18.1-17.9c0-4.5-1.7-8.9-4.7-12.2c6.7-7.3,6.2-18.6-1.1-25.3c-1-0.9-2-1.6-3.1-2.3l4.8-7.8
	l0.7-0.4c31.7-12.9,52.2-43.8,51.7-78c0-46.9-40.6-85.1-90.4-85.1s-90.4,38.2-90.4,85.1C109.1,192.7,129.6,223.7,161.2,236.5z
	 M224.1,290.4h-48.2c-3.3,0-6-2.7-6-6s2.7-6,6-6h48.2c3.3,0,6,2.7,6,6S227.4,290.4,224.1,290.4z M224.1,266.3h-48.2
	c-3.3,0-6-2.7-6-6s2.7-6,6-6h48.2c3.3,0,6,2.7,6,6S227.4,266.3,224.1,266.3z M200,85.5c43.2,0,78.4,32.8,78.4,73.1
	c0.5,29.4-17.2,56-44.5,66.9c-0.2,0.1-0.4,0.2-0.6,0.3l-2.4,1.3c-0.9,0.5-1.7,1.3-2.3,2.2l-7.9,12.9h-2.6v-45.7l28.4-28.4l-8.5-8.5
	l-30.1,30.1c-1.1,1.1-1.8,2.7-1.8,4.3v48.2H194V194c0-1.6-0.6-3.1-1.8-4.3l-30.1-30.1l-8.5,8.5l28.4,28.4v45.7h-2.6l-7.9-12.9
	c-0.6-0.9-1.3-1.6-2.3-2.2l-2.4-1.3c-0.2-0.1-0.4-0.2-0.6-0.3c-27.2-11-44.9-37.6-44.5-66.9C121.6,118.3,156.8,85.5,200,85.5z"/>
<rect x="85.5" y="68.3" transform="matrix(0.4472 -0.8944 0.8944 0.4472 -28.5689 130.7717)" class="st0" width="12.1" height="40.4"/>
<rect x="287.2" y="82.5" transform="matrix(0.9486 -0.3164 0.3164 0.9486 -12.2093 101.7982)" class="st0" width="40.4" height="12.1"/>
<rect x="49.3" y="151.8" class="st0" width="36.2" height="12.1"/>
<rect x="314.5" y="151.8" class="st0" width="36.2" height="12.1"/>
<rect x="71.3" y="233.1" transform="matrix(0.8944 -0.4472 0.4472 0.8944 -97.3002 66.1765)" class="st0" width="40.4" height="12.1"/>
<rect x="302.5" y="219" transform="matrix(0.4472 -0.8944 0.8944 0.4472 -43.3961 408.1345)" class="st0" width="12.1" height="40.4"/>
<rect x="194" y="23" class="st0" width="12.1" height="30.1"/>
<path class="st0" d="M175.9,356.7H25.2v12.1h349.6v-12.1H224.1c0.7-20,62.4-42.2,150.6-42.2v-12.1c-78.6,0-162.2,19-162.7,54.2
	h-24.1c-0.5-35.2-84.1-54.2-162.7-54.2v12.1C113.5,314.5,175.2,336.7,175.9,356.7z"/>
<rect x="76.4" y="284.3" transform="matrix(5.256255e-02 -0.9986 0.9986 5.256255e-02 -263.0292 406.0399)" class="st0" width="12.1" height="114.7"/>
<rect x="260.2" y="335.6" transform="matrix(0.9986 -5.273683e-02 5.273683e-02 0.9986 -17.5749 17.2208)" class="st0" width="114.7" height="12.1"/>
</svg>
