<?xml version="1.0" encoding="utf-8"?>
<!-- Generator: Adobe Illustrator 24.3.0, SVG Export Plug-In . SVG Version: 6.00 Build 0)  -->
<svg version="1.1" id="Camada_1" xmlns="http://www.w3.org/2000/svg" xmlns:xlink="http://www.w3.org/1999/xlink" x="0px" y="0px"
	 viewBox="0 0 400 400" style="enable-background:new 0 0 400 400;" xml:space="preserve">
<style type="text/css">
	.st0{fill:#88C1D3;}
	.st1{fill:#88C1D3;stroke:#88C1D3;stroke-width:6;stroke-miterlimit:10;}
</style>
<g>
	<path class="st0" d="M364.1,267.1h-12.4V79.7c0-17.3-14-31.3-31.3-31.3H79.7c-17.3,0-31.3,14-31.3,31.3v187.4H35.9
		c-5.2,0-9.4,4.2-9.4,9.4v43.8c0,17.3,14,31.3,31.3,31.3h284.4c17.3,0,31.3-14,31.3-31.3v-43.8C373.5,271.4,369.3,267.1,364.1,267.1
		z M67.2,79.7c0-6.9,5.6-12.4,12.4-12.4h240.6c6.9,0,12.4,5.6,12.4,12.4v187.4H67.2V79.7z M354.6,320.3c0,6.9-5.6,12.4-12.4,12.4
		H57.8c-6.9,0-12.4-5.6-12.4-12.4V286h309.2V320.3z"/>
</g>
<g>
	<path class="st0" d="M231.3,309.4c0,5.2-4.2,9.4-9.4,9.4h-43.8c-5.2,0-9.4-4.2-9.4-9.4c0-5.2,4.2-9.4,9.4-9.4h43.8
		C227.1,299.9,231.3,304.2,231.3,309.4z"/>
</g>
<g>
	<path class="st1" d="M189.1,190.6c-1.6,0-3.2-0.6-4.3-1.8l-17.4-17.4c-2.4-2.4-2.4-6.2,0-8.6c0,0,0,0,0,0c2.4-2.4,6.2-2.4,8.6,0
		l13.1,13.1L224,141c2.4-2.4,6.2-2.4,8.6,0c2.4,2.4,2.4,6.2,0,8.6l-39.2,39C192.3,189.8,190.8,190.5,189.1,190.6z"/>
	<path class="st1" d="M219.2,238.4c-4-0.2-7.9-1.2-11.6-2.9c-2.4-1.1-5-1.8-7.6-2.1c-2.6,0.3-5.2,1-7.6,2.1
		c-5,2.6-10.7,3.4-16.2,2.1c-5.3-2.3-9.6-6.4-12.2-11.5c-1.2-2.3-2.8-4.3-4.6-6.1c-2.2-1.2-4.6-2.1-7.1-2.6
		c-5.7-0.8-10.9-3.6-14.6-7.9c-2.9-4.9-4-10.7-3-16.3c0.4-2.6,0.4-5.2,0-7.7c-1.1-2.2-2.4-4.3-4.1-6.1c-4.2-4-6.9-9.3-7.6-15.1
		c0.6-5.8,3.2-11.2,7.3-15.3c1.7-1.8,3-3.9,4.1-6.1c0.4-2.6,0.4-5.2,0-7.7c-0.9-5.6,0.2-11.3,3-16.2c3.8-4.3,9-7.1,14.6-7.9
		c2.5-0.5,4.9-1.4,7.1-2.6c1.9-1.8,3.4-3.8,4.6-6.1c2.6-5.2,6.9-9.2,12.2-11.5c5.5-1.2,11.2-0.5,16.2,2.1c2.5,1.2,5.2,1.9,7.9,2.3
		c2.6-0.3,5.2-1,7.6-2.1c5-2.5,10.8-3.2,16.2-1.9c5.3,2.3,9.6,6.4,12.2,11.5c1.2,2.3,2.8,4.3,4.6,6.1c2.2,1.2,4.6,2.1,7.1,2.6
		c5.7,0.8,10.9,3.6,14.6,7.9c2.9,4.9,4,10.7,3,16.3c-0.3,2.6-0.2,5.2,0.3,7.7c1.1,2.2,2.4,4.3,4.1,6.1c4.1,4,6.7,9.2,7.3,14.9
		c-0.6,5.8-3.2,11.2-7.3,15.3c-1.7,1.8-3,3.9-4.1,6.1c-0.5,2.5-0.6,5.2-0.3,7.7c0.9,5.6-0.2,11.3-3,16.2c-3.8,4.3-9,7.1-14.6,7.9
		c-2.5,0.5-4.9,1.4-7.1,2.6c-1.9,1.8-3.4,3.8-4.6,6.1c-2.6,5.2-6.9,9.2-12.2,11.5C222.3,238.3,220.8,238.5,219.2,238.4z M200,221.2
		c4.2,0.2,8.3,1.2,12.2,2.9c2.5,1.3,5.3,2,8.2,2c1.8-0.6,3.8-3.8,5.7-6.6c2-3.5,4.6-6.6,7.7-9.1c3.4-2.2,7.2-3.7,11.2-4.6
		c2.9-0.4,5.6-1.5,7.9-3.3c1-2.7,1.2-5.6,0.7-8.5c-0.5-4.1-0.1-8.2,0.9-12.2c1.4-3.7,3.5-7.1,6.1-10c2.3-2.8,4.6-5.6,4.6-7.6
		s-2.3-4.8-4.6-7.6c-2.6-2.9-4.7-6.3-6.1-10c-1.1-4-1.4-8.1-0.9-12.2c0.5-2.8,0.2-5.8-0.7-8.5c-2.3-1.7-5.1-2.9-7.9-3.3
		c-4-0.8-7.7-2.4-11.2-4.6c-3.1-2.5-5.7-5.6-7.7-9.1c-1.8-2.8-3.9-6.1-5.7-6.6c-2.9,0-5.7,0.7-8.2,2.1c-3.9,1.7-8,2.7-12.2,2.9
		c-4.2-0.2-8.3-1.2-12.2-2.9c-2.5-1.3-5.3-2-8.2-2c-1.8,0.6-3.8,3.8-5.7,6.6c-2,3.5-4.6,6.6-7.7,9.1c-3.4,2.2-7.2,3.7-11.2,4.6
		c-2.9,0.4-5.6,1.5-7.9,3.3c-1,2.7-1.2,5.6-0.7,8.5c0.5,4.1,0.1,8.2-0.9,12.2c-1.4,3.7-3.5,7.1-6.1,10c-2.3,2.8-4.6,5.6-4.6,7.6
		s2.3,4.8,4.6,7.6c2.6,2.9,4.7,6.3,6.1,10c1.1,4,1.4,8.1,0.9,12.2c-0.5,2.8-0.2,5.8,0.7,8.5c2.3,1.7,5.1,2.9,7.9,3.3
		c4,0.8,7.7,2.4,11.2,4.6c3.1,2.5,5.7,5.6,7.7,9.1c1.8,2.8,3.9,6.1,5.7,6.6c2.9,0,5.7-0.7,8.2-2.1
		C191.7,222.5,195.8,221.5,200,221.2z"/>
</g>
</svg>
