<?xml version="1.0" encoding="utf-8"?>
<!-- Generator: Adobe Illustrator 25.0.1, SVG Export Plug-In . SVG Version: 6.00 Build 0)  -->
<svg version="1.1" id="Camada_1" xmlns="http://www.w3.org/2000/svg" xmlns:xlink="http://www.w3.org/1999/xlink" x="0px" y="0px"
	 viewBox="0 0 400 400" style="enable-background:new 0 0 400 400;" xml:space="preserve">
<style type="text/css">
	.st0{fill:#88C1D3;stroke:#88C1D3;stroke-width:7;stroke-miterlimit:10;}
</style>
<g>
	<path class="st0" d="M291,166.8l-60.7-5.9l-23.6-56.3c-1-2.5-3.4-4.1-6.1-4.1h0c-2.7,0-5.1,1.6-6.1,4l-24.4,55.9l-60.8,5.1
		c-3.7,0.3-6.4,3.5-6.1,7.2c0.1,1.7,0.9,3.3,2.2,4.5l45.6,40.5l-13.9,59.4c-0.8,3.6,1.4,7.2,5,8.1c1.7,0.4,3.4,0.1,4.9-0.7
		l52.6-30.9l52.2,31.6c1,0.6,2.3,1,3.5,1c3.7,0,6.7-3,6.7-6.7c0-0.5-0.1-1-0.2-1.4l-13.1-59.6l46.2-39.9c2.8-2.4,3.1-6.6,0.7-9.4
		C294.3,167.7,292.7,166.9,291,166.8L291,166.8z M236.7,210.8c-1.9,1.6-2.7,4.1-2.2,6.5l10.6,48.2L203,240c-2.1-1.3-4.7-1.3-6.9,0
		l-42.6,25l11.3-48.1c0.6-2.4-0.2-4.9-2.1-6.5l-36.9-32.8l49.2-4.1c2.5-0.2,4.6-1.8,5.6-4l19.8-45.2l19.1,45.5
		c1,2.3,3.1,3.8,5.5,4.1l49.1,4.8L236.7,210.8z M200,45.9c-85.1,0-154.1,69-154.1,154.1s69,154.1,154.1,154.1s154.1-69,154.1-154.1
		C354,114.9,285.1,46,200,45.9z M200,340.7c-77.7,0-140.7-63-140.7-140.7S122.3,59.3,200,59.3s140.7,63,140.7,140.7
		C340.6,277.7,277.7,340.6,200,340.7z"/>
</g>
</svg>
