<?xml version="1.0" encoding="utf-8"?>
<!-- Generator: Adobe Illustrator 24.3.0, SVG Export Plug-In . SVG Version: 6.00 Build 0)  -->
<svg version="1.1"
	 id="Camada_1" xmlns:cc="http://creativecommons.org/ns#" xmlns:dc="http://purl.org/dc/elements/1.1/" xmlns:inkscape="http://www.inkscape.org/namespaces/inkscape" xmlns:rdf="http://www.w3.org/1999/02/22-rdf-syntax-ns#" xmlns:sodipodi="http://sodipodi.sourceforge.net/DTD/sodipodi-0.dtd" xmlns:svg="http://www.w3.org/2000/svg"
	 xmlns="http://www.w3.org/2000/svg" xmlns:xlink="http://www.w3.org/1999/xlink" x="0px" y="0px" viewBox="0 0 400 400"
	 style="enable-background:new 0 0 400 400;" xml:space="preserve">
<style type="text/css">
	.st0{fill:#88C1D3;}
</style>
<g>
	<path class="st0" d="M247.7,250.7c-0.7-0.6-1.6-1-2.5-1.3l-27.4-7.8l-11.5-23.2c-1.3-2.6-4-4.1-6.9-3.8c-2.4,0.2-4.5,1.7-5.6,3.8
		l-11.5,23.2l-27.4,7.8c-1.8,0.5-3.3,1.7-4.2,3.3c-0.9,1.6-1.1,3.5-0.6,5.3c0.3,0.9,0.7,1.8,1.3,2.5l15.8,19.6v23.5
		c0,1.9,0.7,3.6,2,5c1.3,1.3,3.1,2.1,4.9,2.1c1.1,0,2.2-0.2,3.1-0.7l22.8-11l22.8,11c3.5,1.7,7.7,0.2,9.4-3.2c0.5-1,0.7-2,0.7-3.1
		v-23.5l15.7-19.6C251.1,257.5,250.7,253.1,247.7,250.7z M220.4,273.4c-1,1.2-1.5,2.8-1.5,4.4v14.6l-15.8-7.6c-2-1-4.2-1-6.1,0
		l-15.8,7.6v-14.6c0-1.6-0.5-3.1-1.5-4.4l-10.7-13.2l20.2-5.8c1.8-0.6,3.4-1.9,4.3-3.6l6.7-13.5l6.7,13.4c0.9,1.7,2.4,3.1,4.3,3.6
		l20.2,5.8L220.4,273.4z M247.7,250.7c-0.7-0.6-1.6-1-2.5-1.3l-27.4-7.8l-11.5-23.2c-1.3-2.6-4-4.1-6.9-3.8
		c-2.4,0.2-4.5,1.7-5.6,3.8l-11.5,23.2l-27.4,7.8c-1.8,0.5-3.3,1.7-4.2,3.3c-0.9,1.6-1.1,3.5-0.6,5.3c0.3,0.9,0.7,1.8,1.3,2.5
		l15.8,19.6v23.5c0,1.9,0.7,3.6,2,5c1.3,1.3,3.1,2.1,4.9,2.1c1.1,0,2.2-0.2,3.1-0.7l22.8-11l22.8,11c3.5,1.7,7.7,0.2,9.4-3.2
		c0.5-1,0.7-2,0.7-3.1v-23.5l15.7-19.6C251.1,257.5,250.7,253.1,247.7,250.7z M220.4,273.4c-1,1.2-1.5,2.8-1.5,4.4v14.6l-15.8-7.6
		c-2-1-4.2-1-6.1,0l-15.8,7.6v-14.6c0-1.6-0.5-3.1-1.5-4.4l-10.7-13.2l20.2-5.8c1.8-0.6,3.4-1.9,4.3-3.6l6.7-13.5l6.7,13.4
		c0.9,1.7,2.4,3.1,4.3,3.6l20.2,5.8L220.4,273.4z M247.7,250.7c-0.7-0.6-1.6-1-2.5-1.3l-27.4-7.8l-11.5-23.2c-1.3-2.6-4-4.1-6.9-3.8
		c-2.4,0.2-4.5,1.7-5.6,3.8l-11.5,23.2l-27.4,7.8c-1.8,0.5-3.3,1.7-4.2,3.3c-0.9,1.6-1.1,3.5-0.6,5.3c0.3,0.9,0.7,1.8,1.3,2.5
		l15.8,19.6v23.5c0,1.9,0.7,3.6,2,5c1.3,1.3,3.1,2.1,4.9,2.1c1.1,0,2.2-0.2,3.1-0.7l22.8-11l22.8,11c3.5,1.7,7.7,0.2,9.4-3.2
		c0.5-1,0.7-2,0.7-3.1v-23.5l15.7-19.6C251.1,257.5,250.7,253.1,247.7,250.7z M220.4,273.4c-1,1.2-1.5,2.8-1.5,4.4v14.6l-15.8-7.6
		c-2-1-4.2-1-6.1,0l-15.8,7.6v-14.6c0-1.6-0.5-3.1-1.5-4.4l-10.7-13.2l20.2-5.8c1.8-0.6,3.4-1.9,4.3-3.6l6.7-13.5l6.7,13.4
		c0.9,1.7,2.4,3.1,4.3,3.6l20.2,5.8L220.4,273.4z M247.7,250.7c-0.7-0.6-1.6-1-2.5-1.3l-27.4-7.8l-11.5-23.2c-1.3-2.6-4-4.1-6.9-3.8
		c-2.4,0.2-4.5,1.7-5.6,3.8l-11.5,23.2l-27.4,7.8c-1.8,0.5-3.3,1.7-4.2,3.3c-0.9,1.6-1.1,3.5-0.6,5.3c0.3,0.9,0.7,1.8,1.3,2.5
		l15.8,19.6v23.5c0,1.9,0.7,3.6,2,5c1.3,1.3,3.1,2.1,4.9,2.1c1.1,0,2.2-0.2,3.1-0.7l22.8-11l22.8,11c3.5,1.7,7.7,0.2,9.4-3.2
		c0.5-1,0.7-2,0.7-3.1v-23.5l15.7-19.6C251.1,257.5,250.7,253.1,247.7,250.7z M220.4,273.4c-1,1.2-1.5,2.8-1.5,4.4v14.6l-15.8-7.6
		c-2-1-4.2-1-6.1,0l-15.8,7.6v-14.6c0-1.6-0.5-3.1-1.5-4.4l-10.7-13.2l20.2-5.8c1.8-0.6,3.4-1.9,4.3-3.6l6.7-13.5l6.7,13.4
		c0.9,1.7,2.4,3.1,4.3,3.6l20.2,5.8L220.4,273.4z M247.7,250.7c-0.7-0.6-1.6-1-2.5-1.3l-27.4-7.8l-11.5-23.2c-1.3-2.6-4-4.1-6.9-3.8
		c-2.4,0.2-4.5,1.7-5.6,3.8l-11.5,23.2l-27.4,7.8c-1.8,0.5-3.3,1.7-4.2,3.3c-0.9,1.6-1.1,3.5-0.6,5.3c0.3,0.9,0.7,1.8,1.3,2.5
		l15.8,19.6v23.5c0,1.9,0.7,3.6,2,5c1.3,1.3,3.1,2.1,4.9,2.1c1.1,0,2.2-0.2,3.1-0.7l22.8-11l22.8,11c3.5,1.7,7.7,0.2,9.4-3.2
		c0.5-1,0.7-2,0.7-3.1v-23.5l15.7-19.6C251.1,257.5,250.7,253.1,247.7,250.7z M220.4,273.4c-1,1.2-1.5,2.8-1.5,4.4v14.6l-15.8-7.6
		c-2-1-4.2-1-6.1,0l-15.8,7.6v-14.6c0-1.6-0.5-3.1-1.5-4.4l-10.7-13.2l20.2-5.8c1.8-0.6,3.4-1.9,4.3-3.6l6.7-13.5l6.7,13.4
		c0.9,1.7,2.4,3.1,4.3,3.6l20.2,5.8L220.4,273.4z M247.7,250.7c-0.7-0.6-1.6-1-2.5-1.3l-27.4-7.8l-11.5-23.2c-1.3-2.6-4-4.1-6.9-3.8
		c-2.4,0.2-4.5,1.7-5.6,3.8l-11.5,23.2l-27.4,7.8c-1.8,0.5-3.3,1.7-4.2,3.3c-0.9,1.6-1.1,3.5-0.6,5.3c0.3,0.9,0.7,1.8,1.3,2.5
		l15.8,19.6v23.5c0,1.9,0.7,3.6,2,5c1.3,1.3,3.1,2.1,4.9,2.1c1.1,0,2.2-0.2,3.1-0.7l22.8-11l22.8,11c3.5,1.7,7.7,0.2,9.4-3.2
		c0.5-1,0.7-2,0.7-3.1v-23.5l15.7-19.6C251.1,257.5,250.7,253.1,247.7,250.7z M220.4,273.4c-1,1.2-1.5,2.8-1.5,4.4v14.6l-15.8-7.6
		c-2-1-4.2-1-6.1,0l-15.8,7.6v-14.6c0-1.6-0.5-3.1-1.5-4.4l-10.7-13.2l20.2-5.8c1.8-0.6,3.4-1.9,4.3-3.6l6.7-13.5l6.7,13.4
		c0.9,1.7,2.4,3.1,4.3,3.6l20.2,5.8L220.4,273.4z M247.7,250.7c-0.7-0.6-1.6-1-2.5-1.3l-27.4-7.8l-11.5-23.2c-1.3-2.6-4-4.1-6.9-3.8
		c-2.4,0.2-4.5,1.7-5.6,3.8l-11.5,23.2l-27.4,7.8c-1.8,0.5-3.3,1.7-4.2,3.3c-0.9,1.6-1.1,3.5-0.6,5.3c0.3,0.9,0.7,1.8,1.3,2.5
		l15.8,19.6v23.5c0,1.9,0.7,3.6,2,5c1.3,1.3,3.1,2.1,4.9,2.1c1.1,0,2.2-0.2,3.1-0.7l22.8-11l22.8,11c3.5,1.7,7.7,0.2,9.4-3.2
		c0.5-1,0.7-2,0.7-3.1v-23.5l15.7-19.6C251.1,257.5,250.7,253.1,247.7,250.7z M220.4,273.4c-1,1.2-1.5,2.8-1.5,4.4v14.6l-15.8-7.6
		c-2-1-4.2-1-6.1,0l-15.8,7.6v-14.6c0-1.6-0.5-3.1-1.5-4.4l-10.7-13.2l20.2-5.8c1.8-0.6,3.4-1.9,4.3-3.6l6.7-13.5l6.7,13.4
		c0.9,1.7,2.4,3.1,4.3,3.6l20.2,5.8L220.4,273.4z M247.7,250.7c-0.7-0.6-1.6-1-2.5-1.3l-27.4-7.8l-11.5-23.2c-1.3-2.6-4-4.1-6.9-3.8
		c-2.4,0.2-4.5,1.7-5.6,3.8l-11.5,23.2l-27.4,7.8c-1.8,0.5-3.3,1.7-4.2,3.3c-0.9,1.6-1.1,3.5-0.6,5.3c0.3,0.9,0.7,1.8,1.3,2.5
		l15.8,19.6v23.5c0,1.9,0.7,3.6,2,5c1.3,1.3,3.1,2.1,4.9,2.1c1.1,0,2.2-0.2,3.1-0.7l22.8-11l22.8,11c3.5,1.7,7.7,0.2,9.4-3.2
		c0.5-1,0.7-2,0.7-3.1v-23.5l15.7-19.6C251.1,257.5,250.7,253.1,247.7,250.7z M220.4,273.4c-1,1.2-1.5,2.8-1.5,4.4v14.6l-15.8-7.6
		c-2-1-4.2-1-6.1,0l-15.8,7.6v-14.6c0-1.6-0.5-3.1-1.5-4.4l-10.7-13.2l20.2-5.8c1.8-0.6,3.4-1.9,4.3-3.6l6.7-13.5l6.7,13.4
		c0.9,1.7,2.4,3.1,4.3,3.6l20.2,5.8L220.4,273.4z M247.7,250.7c-0.7-0.6-1.6-1-2.5-1.3l-27.4-7.8l-11.5-23.2c-1.3-2.6-4-4.1-6.9-3.8
		c-2.4,0.2-4.5,1.7-5.6,3.8l-11.5,23.2l-27.4,7.8c-1.8,0.5-3.3,1.7-4.2,3.3c-0.9,1.6-1.1,3.5-0.6,5.3c0.3,0.9,0.7,1.8,1.3,2.5
		l15.8,19.6v23.5c0,1.9,0.7,3.6,2,5c1.3,1.3,3.1,2.1,4.9,2.1c1.1,0,2.2-0.2,3.1-0.7l22.8-11l22.8,11c3.5,1.7,7.7,0.2,9.4-3.2
		c0.5-1,0.7-2,0.7-3.1v-23.5l15.7-19.6C251.1,257.5,250.7,253.1,247.7,250.7z M220.4,273.4c-1,1.2-1.5,2.8-1.5,4.4v14.6l-15.8-7.6
		c-2-1-4.2-1-6.1,0l-15.8,7.6v-14.6c0-1.6-0.5-3.1-1.5-4.4l-10.7-13.2l20.2-5.8c1.8-0.6,3.4-1.9,4.3-3.6l6.7-13.5l6.7,13.4
		c0.9,1.7,2.4,3.1,4.3,3.6l20.2,5.8L220.4,273.4z M247.7,250.7c-0.7-0.6-1.6-1-2.5-1.3l-27.4-7.8l-11.5-23.2c-1.3-2.6-4-4.1-6.9-3.8
		c-2.4,0.2-4.5,1.7-5.6,3.8l-11.5,23.2l-27.4,7.8c-1.8,0.5-3.3,1.7-4.2,3.3c-0.9,1.6-1.1,3.5-0.6,5.3c0.3,0.9,0.7,1.8,1.3,2.5
		l15.8,19.6v23.5c0,1.9,0.7,3.6,2,5c1.3,1.3,3.1,2.1,4.9,2.1c1.1,0,2.2-0.2,3.1-0.7l22.8-11l22.8,11c3.5,1.7,7.7,0.2,9.4-3.2
		c0.5-1,0.7-2,0.7-3.1v-23.5l15.7-19.6C251.1,257.5,250.7,253.1,247.7,250.7z M220.4,273.4c-1,1.2-1.5,2.8-1.5,4.4v14.6l-15.8-7.6
		c-2-1-4.2-1-6.1,0l-15.8,7.6v-14.6c0-1.6-0.5-3.1-1.5-4.4l-10.7-13.2l20.2-5.8c1.8-0.6,3.4-1.9,4.3-3.6l6.7-13.5l6.7,13.4
		c0.9,1.7,2.4,3.1,4.3,3.6l20.2,5.8L220.4,273.4z M247.7,250.7c-0.7-0.6-1.6-1-2.5-1.3l-27.4-7.8l-11.5-23.2c-1.3-2.6-4-4.1-6.9-3.8
		c-2.4,0.2-4.5,1.7-5.6,3.8l-11.5,23.2l-27.4,7.8c-1.8,0.5-3.3,1.7-4.2,3.3c-0.9,1.6-1.1,3.5-0.6,5.3c0.3,0.9,0.7,1.8,1.3,2.5
		l15.8,19.6v23.5c0,1.9,0.7,3.6,2,5c1.3,1.3,3.1,2.1,4.9,2.1c1.1,0,2.2-0.2,3.1-0.7l22.8-11l22.8,11c3.5,1.7,7.7,0.2,9.4-3.2
		c0.5-1,0.7-2,0.7-3.1v-23.5l15.7-19.6C251.1,257.5,250.7,253.1,247.7,250.7z M220.4,273.4c-1,1.2-1.5,2.8-1.5,4.4v14.6l-15.8-7.6
		c-2-1-4.2-1-6.1,0l-15.8,7.6v-14.6c0-1.6-0.5-3.1-1.5-4.4l-10.7-13.2l20.2-5.8c1.8-0.6,3.4-1.9,4.3-3.6l6.7-13.5l6.7,13.4
		c0.9,1.7,2.4,3.1,4.3,3.6l20.2,5.8L220.4,273.4z M247.7,250.7c-0.7-0.6-1.6-1-2.5-1.3l-27.4-7.8l-11.5-23.2c-1.3-2.6-4-4.1-6.9-3.8
		c-2.4,0.2-4.5,1.7-5.6,3.8l-11.5,23.2l-27.4,7.8c-1.8,0.5-3.3,1.7-4.2,3.3c-0.9,1.6-1.1,3.5-0.6,5.3c0.3,0.9,0.7,1.8,1.3,2.5
		l15.8,19.6v23.5c0,1.9,0.7,3.6,2,5c1.3,1.3,3.1,2.1,4.9,2.1c1.1,0,2.2-0.2,3.1-0.7l22.8-11l22.8,11c3.5,1.7,7.7,0.2,9.4-3.2
		c0.5-1,0.7-2,0.7-3.1v-23.5l15.7-19.6C251.1,257.5,250.7,253.1,247.7,250.7z M220.4,273.4c-1,1.2-1.5,2.8-1.5,4.4v14.6l-15.8-7.6
		c-2-1-4.2-1-6.1,0l-15.8,7.6v-14.6c0-1.6-0.5-3.1-1.5-4.4l-10.7-13.2l20.2-5.8c1.8-0.6,3.4-1.9,4.3-3.6l6.7-13.5l6.7,13.4
		c0.9,1.7,2.4,3.1,4.3,3.6l20.2,5.8L220.4,273.4z M308,141.2c-28.2,0-54.4,13.7-70.2,36.6l-0.7,1.1l-1.2-0.5
		c-11.6-4.6-23.6-6.9-35.8-6.9s-24.3,2.3-35.8,6.9l-1.2,0.5l-0.7-1.1c-15.8-22.9-42-36.6-70.2-36.6c-46.7,0-84.8,37.4-84.8,83.3v62
		c0,6.2,5.1,11.3,11.3,11.3h88l0.4,1.1c6.2,19.3,18.6,36.6,35,48.7c17,12.6,37,19.2,58.1,19.2c53.9,0,97.7-43.8,97.7-97.7
		c0-31.1-14.4-59.6-39.6-78.3l-1.3-1l1-1.3c11.7-15.7,30-24.7,50.2-24.7c34.8,0,62.1,26.6,62.1,60.6v50.6h-40.5
		c-3.1-0.1-5.9,1.1-8.1,3.2c-2.2,2.1-3.4,4.9-3.4,8c0,3,1.1,5.9,3.2,8.1c2.1,2.2,4.9,3.4,8,3.4h52.2c6.2,0,11.3-5.1,11.3-11.3v-62
		C392.7,178.5,354.7,141.2,308,141.2z M102.3,269.1c0,1.2,0.1,2.5,0.1,3.7l0.1,2.3H29.9v-50.6c0-34,27.3-60.6,62.1-60.6
		c20.2,0,38.4,9,50.2,24.7l1,1.3l-1.3,1C116.7,209.5,102.3,238,102.3,269.1z M275.1,269.1c0,20.1-7.8,39-21.9,53.1
		c-14.1,14.1-33,21.9-53.1,21.9s-39-7.8-53.1-21.9c-14.1-14.1-21.9-33-21.9-53.1c0-20.1,7.8-39,21.9-53.1
		c14.1-14.1,33-21.9,53.1-21.9s39,7.8,53.1,21.9C267.3,230.1,275.1,249,275.1,269.1z M247.7,250.7c-0.7-0.6-1.6-1-2.5-1.3l-27.4-7.8
		l-11.5-23.2c-1.3-2.6-4-4.1-6.9-3.8c-2.4,0.2-4.5,1.7-5.6,3.8l-11.5,23.2l-27.4,7.8c-1.8,0.5-3.3,1.7-4.2,3.3
		c-0.9,1.6-1.1,3.5-0.6,5.3c0.3,0.9,0.7,1.8,1.3,2.5l15.8,19.6v23.5c0,1.9,0.7,3.6,2,5c1.3,1.3,3.1,2.1,4.9,2.1
		c1.1,0,2.2-0.2,3.1-0.7l22.8-11l22.8,11c3.5,1.7,7.7,0.2,9.4-3.2c0.5-1,0.7-2,0.7-3.1v-23.5l15.7-19.6
		C251.1,257.5,250.7,253.1,247.7,250.7z M220.4,273.4c-1,1.2-1.5,2.8-1.5,4.4v14.6l-15.8-7.6c-2-1-4.2-1-6.1,0l-15.8,7.6v-14.6
		c0-1.6-0.5-3.1-1.5-4.4l-10.7-13.2l20.2-5.8c1.8-0.6,3.4-1.9,4.3-3.6l6.7-13.5l6.7,13.4c0.9,1.7,2.4,3.1,4.3,3.6l20.2,5.8
		L220.4,273.4z M247.7,250.7c-0.7-0.6-1.6-1-2.5-1.3l-27.4-7.8l-11.5-23.2c-1.3-2.6-4-4.1-6.9-3.8c-2.4,0.2-4.5,1.7-5.6,3.8
		l-11.5,23.2l-27.4,7.8c-1.8,0.5-3.3,1.7-4.2,3.3c-0.9,1.6-1.1,3.5-0.6,5.3c0.3,0.9,0.7,1.8,1.3,2.5l15.8,19.6v23.5
		c0,1.9,0.7,3.6,2,5c1.3,1.3,3.1,2.1,4.9,2.1c1.1,0,2.2-0.2,3.1-0.7l22.8-11l22.8,11c3.5,1.7,7.7,0.2,9.4-3.2c0.5-1,0.7-2,0.7-3.1
		v-23.5l15.7-19.6C251.1,257.5,250.7,253.1,247.7,250.7z M220.4,273.4c-1,1.2-1.5,2.8-1.5,4.4v14.6l-15.8-7.6c-2-1-4.2-1-6.1,0
		l-15.8,7.6v-14.6c0-1.6-0.5-3.1-1.5-4.4l-10.7-13.2l20.2-5.8c1.8-0.6,3.4-1.9,4.3-3.6l6.7-13.5l6.7,13.4c0.9,1.7,2.4,3.1,4.3,3.6
		l20.2,5.8L220.4,273.4z M247.7,250.7c-0.7-0.6-1.6-1-2.5-1.3l-27.4-7.8l-11.5-23.2c-1.3-2.6-4-4.1-6.9-3.8
		c-2.4,0.2-4.5,1.7-5.6,3.8l-11.5,23.2l-27.4,7.8c-1.8,0.5-3.3,1.7-4.2,3.3c-0.9,1.6-1.1,3.5-0.6,5.3c0.3,0.9,0.7,1.8,1.3,2.5
		l15.8,19.6v23.5c0,1.9,0.7,3.6,2,5c1.3,1.3,3.1,2.1,4.9,2.1c1.1,0,2.2-0.2,3.1-0.7l22.8-11l22.8,11c3.5,1.7,7.7,0.2,9.4-3.2
		c0.5-1,0.7-2,0.7-3.1v-23.5l15.7-19.6C251.1,257.5,250.7,253.1,247.7,250.7z M220.4,273.4c-1,1.2-1.5,2.8-1.5,4.4v14.6l-15.8-7.6
		c-2-1-4.2-1-6.1,0l-15.8,7.6v-14.6c0-1.6-0.5-3.1-1.5-4.4l-10.7-13.2l20.2-5.8c1.8-0.6,3.4-1.9,4.3-3.6l6.7-13.5l6.7,13.4
		c0.9,1.7,2.4,3.1,4.3,3.6l20.2,5.8L220.4,273.4z M247.7,250.7c-0.7-0.6-1.6-1-2.5-1.3l-27.4-7.8l-11.5-23.2c-1.3-2.6-4-4.1-6.9-3.8
		c-2.4,0.2-4.5,1.7-5.6,3.8l-11.5,23.2l-27.4,7.8c-1.8,0.5-3.3,1.7-4.2,3.3c-0.9,1.6-1.1,3.5-0.6,5.3c0.3,0.9,0.7,1.8,1.3,2.5
		l15.8,19.6v23.5c0,1.9,0.7,3.6,2,5c1.3,1.3,3.1,2.1,4.9,2.1c1.1,0,2.2-0.2,3.1-0.7l22.8-11l22.8,11c3.5,1.7,7.7,0.2,9.4-3.2
		c0.5-1,0.7-2,0.7-3.1v-23.5l15.7-19.6C251.1,257.5,250.7,253.1,247.7,250.7z M220.4,273.4c-1,1.2-1.5,2.8-1.5,4.4v14.6l-15.8-7.6
		c-2-1-4.2-1-6.1,0l-15.8,7.6v-14.6c0-1.6-0.5-3.1-1.5-4.4l-10.7-13.2l20.2-5.8c1.8-0.6,3.4-1.9,4.3-3.6l6.7-13.5l6.7,13.4
		c0.9,1.7,2.4,3.1,4.3,3.6l20.2,5.8L220.4,273.4z M247.7,250.7c-0.7-0.6-1.6-1-2.5-1.3l-27.4-7.8l-11.5-23.2c-1.3-2.6-4-4.1-6.9-3.8
		c-2.4,0.2-4.5,1.7-5.6,3.8l-11.5,23.2l-27.4,7.8c-1.8,0.5-3.3,1.7-4.2,3.3c-0.9,1.6-1.1,3.5-0.6,5.3c0.3,0.9,0.7,1.8,1.3,2.5
		l15.8,19.6v23.5c0,1.9,0.7,3.6,2,5c1.3,1.3,3.1,2.1,4.9,2.1c1.1,0,2.2-0.2,3.1-0.7l22.8-11l22.8,11c3.5,1.7,7.7,0.2,9.4-3.2
		c0.5-1,0.7-2,0.7-3.1v-23.5l15.7-19.6C251.1,257.5,250.7,253.1,247.7,250.7z M220.4,273.4c-1,1.2-1.5,2.8-1.5,4.4v14.6l-15.8-7.6
		c-2-1-4.2-1-6.1,0l-15.8,7.6v-14.6c0-1.6-0.5-3.1-1.5-4.4l-10.7-13.2l20.2-5.8c1.8-0.6,3.4-1.9,4.3-3.6l6.7-13.5l6.7,13.4
		c0.9,1.7,2.4,3.1,4.3,3.6l20.2,5.8L220.4,273.4z M247.7,250.7c-0.7-0.6-1.6-1-2.5-1.3l-27.4-7.8l-11.5-23.2c-1.3-2.6-4-4.1-6.9-3.8
		c-2.4,0.2-4.5,1.7-5.6,3.8l-11.5,23.2l-27.4,7.8c-1.8,0.5-3.3,1.7-4.2,3.3c-0.9,1.6-1.1,3.5-0.6,5.3c0.3,0.9,0.7,1.8,1.3,2.5
		l15.8,19.6v23.5c0,1.9,0.7,3.6,2,5c1.3,1.3,3.1,2.1,4.9,2.1c1.1,0,2.2-0.2,3.1-0.7l22.8-11l22.8,11c3.5,1.7,7.7,0.2,9.4-3.2
		c0.5-1,0.7-2,0.7-3.1v-23.5l15.7-19.6C251.1,257.5,250.7,253.1,247.7,250.7z M220.4,273.4c-1,1.2-1.5,2.8-1.5,4.4v14.6l-15.8-7.6
		c-2-1-4.2-1-6.1,0l-15.8,7.6v-14.6c0-1.6-0.5-3.1-1.5-4.4l-10.7-13.2l20.2-5.8c1.8-0.6,3.4-1.9,4.3-3.6l6.7-13.5l6.7,13.4
		c0.9,1.7,2.4,3.1,4.3,3.6l20.2,5.8L220.4,273.4z M247.7,250.7c-0.7-0.6-1.6-1-2.5-1.3l-27.4-7.8l-11.5-23.2c-1.3-2.6-4-4.1-6.9-3.8
		c-2.4,0.2-4.5,1.7-5.6,3.8l-11.5,23.2l-27.4,7.8c-1.8,0.5-3.3,1.7-4.2,3.3c-0.9,1.6-1.1,3.5-0.6,5.3c0.3,0.9,0.7,1.8,1.3,2.5
		l15.8,19.6v23.5c0,1.9,0.7,3.6,2,5c1.3,1.3,3.1,2.1,4.9,2.1c1.1,0,2.2-0.2,3.1-0.7l22.8-11l22.8,11c3.5,1.7,7.7,0.2,9.4-3.2
		c0.5-1,0.7-2,0.7-3.1v-23.5l15.7-19.6C251.1,257.5,250.7,253.1,247.7,250.7z M220.4,273.4c-1,1.2-1.5,2.8-1.5,4.4v14.6l-15.8-7.6
		c-2-1-4.2-1-6.1,0l-15.8,7.6v-14.6c0-1.6-0.5-3.1-1.5-4.4l-10.7-13.2l20.2-5.8c1.8-0.6,3.4-1.9,4.3-3.6l6.7-13.5l6.7,13.4
		c0.9,1.7,2.4,3.1,4.3,3.6l20.2,5.8L220.4,273.4z M247.7,250.7c-0.7-0.6-1.6-1-2.5-1.3l-27.4-7.8l-11.5-23.2c-1.3-2.6-4-4.1-6.9-3.8
		c-2.4,0.2-4.5,1.7-5.6,3.8l-11.5,23.2l-27.4,7.8c-1.8,0.5-3.3,1.7-4.2,3.3c-0.9,1.6-1.1,3.5-0.6,5.3c0.3,0.9,0.7,1.8,1.3,2.5
		l15.8,19.6v23.5c0,1.9,0.7,3.6,2,5c1.3,1.3,3.1,2.1,4.9,2.1c1.1,0,2.2-0.2,3.1-0.7l22.8-11l22.8,11c3.5,1.7,7.7,0.2,9.4-3.2
		c0.5-1,0.7-2,0.7-3.1v-23.5l15.7-19.6C251.1,257.5,250.7,253.1,247.7,250.7z M220.4,273.4c-1,1.2-1.5,2.8-1.5,4.4v14.6l-15.8-7.6
		c-2-1-4.2-1-6.1,0l-15.8,7.6v-14.6c0-1.6-0.5-3.1-1.5-4.4l-10.7-13.2l20.2-5.8c1.8-0.6,3.4-1.9,4.3-3.6l6.7-13.5l6.7,13.4
		c0.9,1.7,2.4,3.1,4.3,3.6l20.2,5.8L220.4,273.4z M247.7,250.7c-0.7-0.6-1.6-1-2.5-1.3l-27.4-7.8l-11.5-23.2c-1.3-2.6-4-4.1-6.9-3.8
		c-2.4,0.2-4.5,1.7-5.6,3.8l-11.5,23.2l-27.4,7.8c-1.8,0.5-3.3,1.7-4.2,3.3c-0.9,1.6-1.1,3.5-0.6,5.3c0.3,0.9,0.7,1.8,1.3,2.5
		l15.8,19.6v23.5c0,1.9,0.7,3.6,2,5c1.3,1.3,3.1,2.1,4.9,2.1c1.1,0,2.2-0.2,3.1-0.7l22.8-11l22.8,11c3.5,1.7,7.7,0.2,9.4-3.2
		c0.5-1,0.7-2,0.7-3.1v-23.5l15.7-19.6C251.1,257.5,250.7,253.1,247.7,250.7z M220.4,273.4c-1,1.2-1.5,2.8-1.5,4.4v14.6l-15.8-7.6
		c-2-1-4.2-1-6.1,0l-15.8,7.6v-14.6c0-1.6-0.5-3.1-1.5-4.4l-10.7-13.2l20.2-5.8c1.8-0.6,3.4-1.9,4.3-3.6l6.7-13.5l6.7,13.4
		c0.9,1.7,2.4,3.1,4.3,3.6l20.2,5.8L220.4,273.4z M247.7,250.7c-0.7-0.6-1.6-1-2.5-1.3l-27.4-7.8l-11.5-23.2c-1.3-2.6-4-4.1-6.9-3.8
		c-2.4,0.2-4.5,1.7-5.6,3.8l-11.5,23.2l-27.4,7.8c-1.8,0.5-3.3,1.7-4.2,3.3c-0.9,1.6-1.1,3.5-0.6,5.3c0.3,0.9,0.7,1.8,1.3,2.5
		l15.8,19.6v23.5c0,1.9,0.7,3.6,2,5c1.3,1.3,3.1,2.1,4.9,2.1c1.1,0,2.2-0.2,3.1-0.7l22.8-11l22.8,11c3.5,1.7,7.7,0.2,9.4-3.2
		c0.5-1,0.7-2,0.7-3.1v-23.5l15.7-19.6C251.1,257.5,250.7,253.1,247.7,250.7z M220.4,273.4c-1,1.2-1.5,2.8-1.5,4.4v14.6l-15.8-7.6
		c-2-1-4.2-1-6.1,0l-15.8,7.6v-14.6c0-1.6-0.5-3.1-1.5-4.4l-10.7-13.2l20.2-5.8c1.8-0.6,3.4-1.9,4.3-3.6l6.7-13.5l6.7,13.4
		c0.9,1.7,2.4,3.1,4.3,3.6l20.2,5.8L220.4,273.4z M247.7,250.7c-0.7-0.6-1.6-1-2.5-1.3l-27.4-7.8l-11.5-23.2c-1.3-2.6-4-4.1-6.9-3.8
		c-2.4,0.2-4.5,1.7-5.6,3.8l-11.5,23.2l-27.4,7.8c-1.8,0.5-3.3,1.7-4.2,3.3c-0.9,1.6-1.1,3.5-0.6,5.3c0.3,0.9,0.7,1.8,1.3,2.5
		l15.8,19.6v23.5c0,1.9,0.7,3.6,2,5c1.3,1.3,3.1,2.1,4.9,2.1c1.1,0,2.2-0.2,3.1-0.7l22.8-11l22.8,11c3.5,1.7,7.7,0.2,9.4-3.2
		c0.5-1,0.7-2,0.7-3.1v-23.5l15.7-19.6C251.1,257.5,250.7,253.1,247.7,250.7z M220.4,273.4c-1,1.2-1.5,2.8-1.5,4.4v14.6l-15.8-7.6
		c-2-1-4.2-1-6.1,0l-15.8,7.6v-14.6c0-1.6-0.5-3.1-1.5-4.4l-10.7-13.2l20.2-5.8c1.8-0.6,3.4-1.9,4.3-3.6l6.7-13.5l6.7,13.4
		c0.9,1.7,2.4,3.1,4.3,3.6l20.2,5.8L220.4,273.4z M308,33.2c-25.3,0-45.9,20.6-45.9,45.9s20.6,45.9,45.9,45.9
		c25.3,0,45.9-20.6,45.9-45.9S333.3,33.2,308,33.2z M308,102.3c-13,0-23.2-10.2-23.2-23.2c0-13,10.2-23.2,23.2-23.2
		c13,0,23.2,10.2,23.2,23.2C331.2,92.1,321,102.3,308,102.3z M92,33.2c-25.3,0-45.9,20.6-45.9,45.9s20.6,45.9,45.9,45.9
		s45.9-20.6,45.9-45.9S117.3,33.2,92,33.2z M92,102.3c-13,0-23.2-10.2-23.2-23.2C68.8,66,79,55.8,92,55.8c13,0,23.2,10.2,23.2,23.2
		C115.2,92.1,105,102.3,92,102.3z"/>
</g>
</svg>
